#!OML:ASF F:\VICON\USERDATA\INSTALL\rory3\rory3.ASF
:FULLY-SPECIFIED
:DEGREES
505
root 0.108994 16.9527 34.4128 7.57637 1.48559 -4.27968
lowerback -7.12371 1.33978 3.87401
upperback -3.73855 1.52525 2.61796
thorax 0.158739 0.736518 0.632388
lowerneck -15.3262 0.501448 0.990839
upperneck 46.4229 1.57219 -2.03798
head 21.4255 0.563915 -0.897573
rclavicle 7.60351e-015 7.15625e-015
rhumerus -42.6859 -17.5933 -66.3558
rradius 22.6376
rwrist -5.94697
rhand -4.38303 10.6801
rfingers 7.12502
rthumb 21.3861 -18.1597
lclavicle 7.60351e-015 7.15625e-015
lhumerus -60.3061 37.8781 48.1742
lradius 19.7396
lwrist -12.8464
lhand -0.408825 23.0861
lfingers 7.12502
lthumb 25.1987 51.4426
rfemur -23.5524 18.0029 27.7696
rtibia 31.1857
rfoot -16.1827 -19.9338
rtoes 9.29644
lfemur -18.194 3.79695 -15.2964
ltibia 62.7703
lfoot -2.62548 14.3926
ltoes -8.04988
506
root 0.109151 16.9577 34.532 7.6706 1.28462 -4.20821
lowerback -7.31586 1.46863 3.87981
upperback -3.71337 1.68393 2.52025
thorax 0.296897 0.816691 0.545639
lowerneck -15.3696 0.420259 0.939442
upperneck 46.5298 1.373 -1.8546
head 21.5113 0.504537 -0.835654
rclavicle 5.46658e-016 1.27222e-014
rhumerus -42.4434 -17.2945 -66.6443
rradius 22.8795
rwrist -6.22984
rhand -4.73952 11.1464
rfingers 7.12502
rthumb 21.0437 -17.7318
lclavicle 5.46658e-016 1.27222e-014
lhumerus -61.183 38.5302 47.0397
lradius 19.682
lwrist -14.3619
lhand 0.0559937 21.8276
lfingers 7.12502
lthumb 25.644 50.1207
rfemur -23.1145 18.0737 27.8191
rtibia 31.1722
rfoot -16.4847 -19.841
rtoes 9.70875
lfemur -19.3471 4.0357 -15.3665
ltibia 63.1641
lfoot -3.45542 14.5519
ltoes -9.18402
507
root 0.0970384 16.9555 34.631 7.64471 0.965229 -4.40831
lowerback -7.02888 1.6067 3.99064
upperback -3.82694 1.88312 2.5117
thorax 0.0278528 0.910365 0.480048
lowerneck -15.005 0.45602 1.48264
upperneck 46.4971 1.37118 -2.16748
head 21.3792 0.564027 -1.10006
rclavicle -2.13694e-014 7.15625e-015
rhumerus -42.4157 -16.8589 -66.9673
rradius 23.1435
rwrist -6.75185
rhand -4.89751 11.5636
rfingers 7.12502
rthumb 20.8919 -17.3314
lclavicle -2.13694e-014 7.15625e-015
lhumerus -60.4915 36.8481 49.3819
lradius 20.8533
lwrist -12.1676
lhand 0.436326 21.9068
lfingers 7.12502
lthumb 26.0082 50.1468
rfemur -22.7117 18.4986 28.2119
rtibia 31.2068
rfoot -16.6074 -20.0629
rtoes 9.01051
lfemur -20.5602 4.5221 -15.0212
ltibia 63.5727
lfoot -3.80358 14.4972
ltoes -10.3933
508
root 0.103628 16.9614 34.7209 7.83803 0.983079 -3.55186
lowerback -7.24912 1.61034 3.27655
upperback -3.61643 1.91365 2.18296
thorax 0.358789 0.937347 0.551995
lowerneck -15.6095 0.378419 1.40163
upperneck 46.7493 1.12183 -1.85804
head 21.7581 0.496161 -0.981605
rclavicle -3.62782e-015 -5.1684e-015
rhumerus -41.6976 -16.8415 -67.3547
rradius 23.4936
rwrist -6.9999
rhand -4.90097 11.4136
rfingers 7.12502
rthumb 20.8886 -17.4818
lclavicle -3.62782e-015 -5.1684e-015
lhumerus -61.3117 38.7584 47.0063
lradius 19.6808
lwrist -15.1203
lhand 0.680542 20.637
lfingers 7.12502
lthumb 26.2421 48.8424
rfemur -22.7177 18.0009 27.335
rtibia 31.4544
rfoot -16.8453 -19.767
rtoes 8.02588
lfemur -21.8036 4.32445 -16.0577
ltibia 63.5833
lfoot -6.51132 14.5882
ltoes -18.1231
509
root 0.0748232 16.9474 34.8021 7.76372 0.195933 -3.78591
lowerback -7.26919 1.94538 3.17256
upperback -3.13339 2.34507 2.25204
thorax 0.868055 1.16184 0.725166
lowerneck -16.2349 0.281904 1.34091
upperneck 46.4421 0.885423 -1.68449
head 21.71 0.414394 -0.92583
rclavicle 1.13556e-014 -9.14409e-015
rhumerus -40.599 -16.7911 -67.9054
rradius 24.001
rwrist -7.52335
rhand -5.1006 11.0194
rfingers 7.12502
rthumb 20.6967 -17.897
lclavicle 1.13556e-014 -9.14409e-015
lhumerus -60.8192 39.6165 47.0763
lradius 19.4512
lwrist -15.8246
lhand 1.04152 19.9005
lfingers 7.12502
lthumb 26.5876 48.0541
rfemur -22.4582 19.641 27.7132
rtibia 31.5412
rfoot -17.1566 -20.4123
rtoes 9.00856
lfemur -22.9234 5.31062 -15.5699
ltibia 63.6664
lfoot -7.94268 14.1089
ltoes -20.6104
510
root 0.0740618 16.942 34.8634 7.78838 0.0167614 -3.37102
lowerback -6.58389 1.98366 2.82244
upperback -3.33618 2.46085 2.05802
thorax 0.275643 1.21588 0.6995
lowerneck -16.1034 0.209679 1.15811
upperneck 46.4954 0.671382 -1.33525
head 21.6972 0.347658 -0.753167
rclavicle -3.73964e-015 -4.77083e-015
rhumerus -40.49 -16.2462 -68.2847
rradius 24.5041
rwrist -7.95284
rhand -5.16741 11.1967
rfingers 7.12502
rthumb 20.6326 -17.7266
lclavicle -3.73964e-015 -4.77083e-015
lhumerus -59.4221 37.4092 50.5188
lradius 20.7729
lwrist -12.3078
lhand 1.3394 20.2466
lfingers 7.12502
lthumb 26.8726 48.3566
rfemur -22.345 19.548 27.3588
rtibia 31.7676
rfoot -17.541 -20.1216
rtoes 9.76273
lfemur -24.2634 5.35418 -16.0509
ltibia 63.5232
lfoot -8.72583 14.3407
ltoes -22.2299
511
root 0.103345 16.9475 35.0026 7.77576 0.274755 -3.82321
lowerback -6.33865 2.05371 3.87377
upperback -3.85714 2.5289 1.91976
thorax -0.349432 1.2237 -0.0437748
lowerneck -14.8914 0.141155 1.64605
upperneck 46.405 0.492486 -1.55806
head 21.2326 0.342465 -0.992411
rclavicle -6.59717e-015 1.98785e-015
rhumerus -41.4618 -15.5797 -68.4639
rradius 25.2157
rwrist -8.57203
rhand -4.93029 11.0895
rfingers 7.12502
rthumb 20.8604 -17.809
lclavicle -6.59717e-015 1.98785e-015
lhumerus -62.6397 39.4128 45.0619
lradius 19.0928
lwrist -16.7607
lhand 1.52205 18.4827
lfingers 7.12502
lthumb 27.0474 46.5657
rfemur -21.5992 18.0433 28.0494
rtibia 31.8504
rfoot -18.0571 -18.9888
rtoes 9.80204
lfemur -24.9997 5.03847 -15.6961
ltibia 63.207
lfoot -10.0561 14.5936
ltoes -23.9251
512
root 0.108009 16.9358 35.0845 7.58825 0.0853126 -3.82938
lowerback -6.17706 2.20015 4.04258
upperback -3.5558 2.71241 1.81637
thorax -0.110044 1.31793 -0.231703
lowerneck -15.054 0.0319449 1.70304
upperneck 46.1949 0.256325 -1.50025
head 21.1166 0.268077 -1.01958
rclavicle 5.37961e-015 -1.15295e-014
rhumerus -40.8431 -15.5534 -68.8111
rradius 25.7991
rwrist -8.89511
rhand -4.68845 10.8261
rfingers 7.12502
rthumb 21.0927 -18.0466
lclavicle 5.37961e-015 -1.15295e-014
lhumerus -61.8143 39.3736 46.067
lradius 19.3453
lwrist -16.1576
lhand 1.86947 18.2756
lfingers 7.12502
lthumb 27.3797 46.3066
rfemur -21.059 17.8405 28.2466
rtibia 32.0057
rfoot -18.3382 -18.6502
rtoes 10.3152
lfemur -25.7961 5.09942 -15.6972
ltibia 62.8187
lfoot -11.2151 14.4867
ltoes -24.5344
513
root 0.0357451 16.9125 35.1772 7.62553 -1.50405 -3.64793
lowerback -6.04767 2.65919 2.80723
upperback -3.50821 3.39112 1.87961
thorax -0.181292 1.67509 0.557181
lowerneck -15.1112 -0.0380884 1.64505
upperneck 46.2512 0.0588743 -1.28605
head 21.1709 0.211741 -0.939842
rclavicle -4.14466e-014 -1.70955e-014
rhumerus -40.613 -15.099 -69.2261
rradius 26.4394
rwrist -9.56674
rhand -4.79982 10.8755
rfingers 7.12502
rthumb 20.9857 -18.0092
lclavicle -4.14466e-014 -1.70955e-014
lhumerus -60.2921 37.4845 49.3902
lradius 20.6741
lwrist -12.6917
lhand 2.20028 18.6398
lfingers 7.12502
lthumb 27.6961 46.6204
rfemur -21.0111 20.9776 28.2466
rtibia 32.26
rfoot -18.3962 -20.202
rtoes 11.0101
lfemur -26.8021 6.72048 -15.6076
ltibia 62.3645
lfoot -11.9841 14.0502
ltoes -25.3275
514
root 0.0587988 16.917 35.2684 7.78631 -1.24859 -3.82431
lowerback -6.33376 2.6176 3.39482
upperback -3.24298 3.28151 1.81464
thorax 0.284774 1.61813 0.179422
lowerneck -15.6883 -0.0595835 1.39251
upperneck 46.373 -0.0902004 -0.875152
head 21.4462 0.164928 -0.714192
rclavicle -1.72818e-014 6.36111e-015
rhumerus -39.7584 -14.6926 -69.7863
rradius 26.9032
rwrist -10.2785
rhand -5.08312 11.0968
rfingers 7.12502
rthumb 20.7135 -17.8178
lclavicle -1.72818e-014 6.36111e-015
lhumerus -59.1067 36.535 51.7528
lradius 21.7471
lwrist -10.0454
lhand 2.36676 18.9335
lfingers 7.12502
lthumb 27.8553 46.8884
rfemur -20.958 20.0036 28.5027
rtibia 32.5996
rfoot -18.3889 -19.7729
rtoes 9.60394
lfemur -27.9039 6.28629 -15.5243
ltibia 61.6671
lfoot -12.7797 14.3245
ltoes -25.5352
515
root 0.0516747 16.8994 35.3091 7.7309 -1.71852 -3.48538
lowerback -4.8457 2.64953 2.82893
upperback -3.83817 3.44294 1.74154
thorax -1.17841 1.68842 0.336155
lowerneck -15.3558 -0.0185077 1.3048
upperneck 46.8442 -0.0859551 -0.658187
head 21.7069 0.184621 -0.585079
rclavicle -7.52524e-014 -3.26007e-014
rhumerus -40.13 -13.6604 -70.1027
rradius 27.4817
rwrist -11.0647
rhand -5.1548 11.1802
rfingers 7.12502
rthumb 20.6447 -17.7418
lclavicle -7.52524e-014 -3.26007e-014
lhumerus -60.012 36.062 51.3392
lradius 21.9845
lwrist -9.36663
lhand 2.85782 18.9453
lfingers 7.12502
lthumb 28.3247 46.8232
rfemur -20.9713 20.5662 28.2322
rtibia 32.9998
rfoot -18.2746 -19.9328
rtoes 10.1729
lfemur -28.9714 6.44019 -15.8841
ltibia 60.8428
lfoot -13.3409 14.5531
ltoes -24.3698
